<mxfile host="app.diagrams.net" modified="2024-07-02T12:43:02.472Z" agent="Mozilla/5.0 (Windows NT 10.0; Win64; x64) AppleWebKit/537.36 (KHTML, like Gecko) Chrome/126.0.0.0 Safari/537.36" etag="5f239rOACQ-IhIXo3fk2" version="24.6.4" type="github">
  <diagram name="Page-1" id="SM_NERUJ3dnt5lTOhVBZ">
    <mxGraphModel dx="345" dy="448" grid="1" gridSize="10" guides="1" tooltips="1" connect="1" arrows="1" fold="1" page="1" pageScale="1" pageWidth="850" pageHeight="1100" math="0" shadow="0">
      <root>
        <mxCell id="0" />
        <mxCell id="1" parent="0" />
        <mxCell id="j_G3NL1udsLklxTixIO5-1" value="CommDevice" style="swimlane;fontStyle=1;align=center;verticalAlign=top;childLayout=stackLayout;horizontal=1;startSize=26;horizontalStack=0;resizeParent=1;resizeParentMax=0;resizeLast=0;collapsible=1;marginBottom=0;whiteSpace=wrap;html=1;" parent="1" vertex="1">
          <mxGeometry x="100" y="40" width="210" height="178" as="geometry" />
        </mxCell>
        <mxCell id="j_G3NL1udsLklxTixIO5-2" value="+ frequency: double: 2400&lt;br&gt;&lt;div&gt;&lt;span style=&quot;background-color: initial;&quot;&gt;+ transmitPower: double: 30&lt;/span&gt;&lt;/div&gt;&lt;div&gt;&lt;span style=&quot;background-color: initial;&quot;&gt;+ antennaGain: double: 2.5&lt;/span&gt;&lt;/div&gt;&lt;div&gt;+ sensitivity: double: -80&lt;span style=&quot;background-color: initial;&quot;&gt;&lt;br&gt;&lt;/span&gt;&lt;/div&gt;&lt;div&gt;+ droppedPacketRatio: double: 0.05&lt;br&gt;&lt;/div&gt;" style="text;strokeColor=none;fillColor=none;align=left;verticalAlign=top;spacingLeft=4;spacingRight=4;overflow=hidden;rotatable=0;points=[[0,0.5],[1,0.5]];portConstraint=eastwest;whiteSpace=wrap;html=1;" parent="j_G3NL1udsLklxTixIO5-1" vertex="1">
          <mxGeometry y="26" width="210" height="144" as="geometry" />
        </mxCell>
        <mxCell id="j_G3NL1udsLklxTixIO5-3" value="" style="line;strokeWidth=1;fillColor=none;align=left;verticalAlign=middle;spacingTop=-1;spacingLeft=3;spacingRight=3;rotatable=0;labelPosition=right;points=[];portConstraint=eastwest;strokeColor=inherit;" parent="j_G3NL1udsLklxTixIO5-1" vertex="1">
          <mxGeometry y="170" width="210" height="8" as="geometry" />
        </mxCell>
        <mxCell id="j_G3NL1udsLklxTixIO5-21" style="edgeStyle=orthogonalEdgeStyle;rounded=0;orthogonalLoop=1;jettySize=auto;html=1;exitX=0.5;exitY=0;exitDx=0;exitDy=0;endArrow=block;endFill=0;" parent="1" source="j_G3NL1udsLklxTixIO5-11" edge="1">
          <mxGeometry relative="1" as="geometry">
            <mxPoint x="200" y="220" as="targetPoint" />
          </mxGeometry>
        </mxCell>
        <mxCell id="j_G3NL1udsLklxTixIO5-11" value="CommNode" style="swimlane;fontStyle=1;align=center;verticalAlign=top;childLayout=stackLayout;horizontal=1;startSize=26;horizontalStack=0;resizeParent=1;resizeParentMax=0;resizeLast=0;collapsible=1;marginBottom=0;whiteSpace=wrap;html=1;" parent="1" vertex="1">
          <mxGeometry x="20" y="280" width="160" height="90" as="geometry" />
        </mxCell>
        <mxCell id="j_G3NL1udsLklxTixIO5-13" value="" style="line;strokeWidth=1;fillColor=none;align=left;verticalAlign=middle;spacingTop=-1;spacingLeft=3;spacingRight=3;rotatable=0;labelPosition=right;points=[];portConstraint=eastwest;strokeColor=inherit;" parent="j_G3NL1udsLklxTixIO5-11" vertex="1">
          <mxGeometry y="26" width="160" height="8" as="geometry" />
        </mxCell>
        <mxCell id="j_G3NL1udsLklxTixIO5-14" value="+ DetComm(): Void&lt;div&gt;+ DetNeigh(): Void&lt;br&gt;&lt;/div&gt;&lt;div&gt;+ SendData(): Void&lt;br&gt;&lt;/div&gt;" style="text;strokeColor=none;fillColor=none;align=left;verticalAlign=top;spacingLeft=4;spacingRight=4;overflow=hidden;rotatable=0;points=[[0,0.5],[1,0.5]];portConstraint=eastwest;whiteSpace=wrap;html=1;" parent="j_G3NL1udsLklxTixIO5-11" vertex="1">
          <mxGeometry y="34" width="160" height="56" as="geometry" />
        </mxCell>
        <mxCell id="j_G3NL1udsLklxTixIO5-22" style="edgeStyle=orthogonalEdgeStyle;rounded=0;orthogonalLoop=1;jettySize=auto;html=1;exitX=0.5;exitY=0;exitDx=0;exitDy=0;endArrow=block;endFill=0;" parent="1" source="j_G3NL1udsLklxTixIO5-15" edge="1">
          <mxGeometry relative="1" as="geometry">
            <mxPoint x="200" y="220" as="targetPoint" />
          </mxGeometry>
        </mxCell>
        <mxCell id="j_G3NL1udsLklxTixIO5-15" value="CommAndCont" style="swimlane;fontStyle=1;align=center;verticalAlign=top;childLayout=stackLayout;horizontal=1;startSize=26;horizontalStack=0;resizeParent=1;resizeParentMax=0;resizeLast=0;collapsible=1;marginBottom=0;whiteSpace=wrap;html=1;" parent="1" vertex="1">
          <mxGeometry x="210" y="280" width="160" height="60" as="geometry" />
        </mxCell>
        <mxCell id="j_G3NL1udsLklxTixIO5-17" value="" style="line;strokeWidth=1;fillColor=none;align=left;verticalAlign=middle;spacingTop=-1;spacingLeft=3;spacingRight=3;rotatable=0;labelPosition=right;points=[];portConstraint=eastwest;strokeColor=inherit;" parent="j_G3NL1udsLklxTixIO5-15" vertex="1">
          <mxGeometry y="26" width="160" height="8" as="geometry" />
        </mxCell>
        <mxCell id="j_G3NL1udsLklxTixIO5-18" value="&lt;div&gt;&lt;span style=&quot;background-color: initial;&quot;&gt;+ SendData(): Void&lt;/span&gt;&lt;br&gt;&lt;/div&gt;" style="text;strokeColor=none;fillColor=none;align=left;verticalAlign=top;spacingLeft=4;spacingRight=4;overflow=hidden;rotatable=0;points=[[0,0.5],[1,0.5]];portConstraint=eastwest;whiteSpace=wrap;html=1;" parent="j_G3NL1udsLklxTixIO5-15" vertex="1">
          <mxGeometry y="34" width="160" height="26" as="geometry" />
        </mxCell>
        <mxCell id="j_G3NL1udsLklxTixIO5-24" value="UAS" style="swimlane;fontStyle=1;align=center;verticalAlign=top;childLayout=stackLayout;horizontal=1;startSize=26;horizontalStack=0;resizeParent=1;resizeParentMax=0;resizeLast=0;collapsible=1;marginBottom=0;whiteSpace=wrap;html=1;" parent="1" vertex="1">
          <mxGeometry x="530" y="40" width="270" height="264" as="geometry" />
        </mxCell>
        <mxCell id="j_G3NL1udsLklxTixIO5-25" value="+ maxSpeed: double: 25&lt;div&gt;+ maxSoundPressureLevel: double: 88.5&lt;br&gt;&lt;/div&gt;&lt;div&gt;+ maxSPLDistance: double: 1&lt;br&gt;&lt;/div&gt;&lt;div&gt;+ radarCrossSection: double: 0.26&lt;br&gt;&lt;/div&gt;&lt;div&gt;+ radioFrequency1: double: 2400&lt;br&gt;&lt;/div&gt;&lt;div&gt;+ transmitPower1: double: 20&lt;br&gt;&lt;/div&gt;&lt;div&gt;+ antennaGain1: double: 2.5&lt;br&gt;&lt;/div&gt;&lt;div&gt;+ radioFrequency2: double: 5800&lt;br&gt;&lt;/div&gt;&lt;div&gt;+ transmitPower2: double: 20&lt;br&gt;&lt;/div&gt;&lt;div&gt;+ antennaGain2: double: 3.2&lt;br&gt;&lt;/div&gt;&lt;div&gt;+ ID: string: &quot;&quot;&lt;br&gt;&lt;/div&gt;&lt;div&gt;+ currentSpeed: double: 0&lt;br&gt;&lt;/div&gt;&lt;div&gt;+ soundPressureLevel: double: 0&lt;/div&gt;" style="text;strokeColor=none;fillColor=none;align=left;verticalAlign=top;spacingLeft=4;spacingRight=4;overflow=hidden;rotatable=0;points=[[0,0.5],[1,0.5]];portConstraint=eastwest;whiteSpace=wrap;html=1;" parent="j_G3NL1udsLklxTixIO5-24" vertex="1">
          <mxGeometry y="26" width="270" height="204" as="geometry" />
        </mxCell>
        <mxCell id="j_G3NL1udsLklxTixIO5-26" value="" style="line;strokeWidth=1;fillColor=none;align=left;verticalAlign=middle;spacingTop=-1;spacingLeft=3;spacingRight=3;rotatable=0;labelPosition=right;points=[];portConstraint=eastwest;strokeColor=inherit;" parent="j_G3NL1udsLklxTixIO5-24" vertex="1">
          <mxGeometry y="230" width="270" height="8" as="geometry" />
        </mxCell>
        <mxCell id="j_G3NL1udsLklxTixIO5-27" value="+ getSoundLevel(type): double" style="text;strokeColor=none;fillColor=none;align=left;verticalAlign=top;spacingLeft=4;spacingRight=4;overflow=hidden;rotatable=0;points=[[0,0.5],[1,0.5]];portConstraint=eastwest;whiteSpace=wrap;html=1;" parent="j_G3NL1udsLklxTixIO5-24" vertex="1">
          <mxGeometry y="238" width="270" height="26" as="geometry" />
        </mxCell>
        <mxCell id="j_G3NL1udsLklxTixIO5-28" value="SensorData" style="swimlane;fontStyle=1;align=center;verticalAlign=top;childLayout=stackLayout;horizontal=1;startSize=26;horizontalStack=0;resizeParent=1;resizeParentMax=0;resizeLast=0;collapsible=1;marginBottom=0;whiteSpace=wrap;html=1;" parent="1" vertex="1">
          <mxGeometry x="530" y="330" width="270" height="178" as="geometry" />
        </mxCell>
        <mxCell id="j_G3NL1udsLklxTixIO5-29" value="&lt;div&gt;&lt;span style=&quot;background-color: initial;&quot;&gt;+ ID: string: &quot;&quot;&lt;/span&gt;&lt;br&gt;&lt;/div&gt;&lt;div&gt;&lt;span style=&quot;background-color: initial;&quot;&gt;+ detected: boolean: false&lt;/span&gt;&lt;/div&gt;&lt;div&gt;&lt;span style=&quot;background-color: initial;&quot;&gt;+ inRange: boolean: false&lt;/span&gt;&lt;/div&gt;&lt;div&gt;+ distance: douibe: 0&lt;/div&gt;&lt;div&gt;+ measure: double: 0&lt;/div&gt;&lt;div&gt;+ units: string: &quot;&quot;&lt;/div&gt;&lt;div&gt;+ time: double: 0&lt;/div&gt;&lt;div&gt;+ message_received: boolean: true&lt;/div&gt;&lt;div&gt;+ last_com_node: string: &quot;&quot;&lt;/div&gt;" style="text;strokeColor=none;fillColor=none;align=left;verticalAlign=top;spacingLeft=4;spacingRight=4;overflow=hidden;rotatable=0;points=[[0,0.5],[1,0.5]];portConstraint=eastwest;whiteSpace=wrap;html=1;" parent="j_G3NL1udsLklxTixIO5-28" vertex="1">
          <mxGeometry y="26" width="270" height="144" as="geometry" />
        </mxCell>
        <mxCell id="j_G3NL1udsLklxTixIO5-30" value="" style="line;strokeWidth=1;fillColor=none;align=left;verticalAlign=middle;spacingTop=-1;spacingLeft=3;spacingRight=3;rotatable=0;labelPosition=right;points=[];portConstraint=eastwest;strokeColor=inherit;" parent="j_G3NL1udsLklxTixIO5-28" vertex="1">
          <mxGeometry y="170" width="270" height="8" as="geometry" />
        </mxCell>
      </root>
    </mxGraphModel>
  </diagram>
</mxfile>
